<?xml version="1.0" encoding="UTF-8"?>
<svg width="263px" height="137px" viewBox="0 0 263 137" version="1.1" xmlns="http://www.w3.org/2000/svg" xmlns:xlink="http://www.w3.org/1999/xlink">
    <!-- Generator: Sketch 43.2 (39069) - http://www.bohemiancoding.com/sketch -->
    <title>Group</title>
    <desc>Created with Sketch.</desc>
    <defs></defs>
    <g id="Page-1" stroke="none" stroke-width="1" fill="none" fill-rule="evenodd">
        <g id="Group">
            <g>
                <g id="logo_lighthouse_01">
                    <path d="M209.232303,108.257789 C208.396411,115.228478 207.820887,119.051997 207.50573,119.728347 C206.845353,121.145567 204.973639,121.712241 201.890588,121.428368 C200.697523,127.410011 200.888843,130.495736 202.464549,130.685542 C205.825337,126.965177 210.007788,124.406308 215.011903,123.008934 L225.865665,123.008934 L225.865665,113.524806 C226.053863,111.453172 227.080006,110.429707 228.944095,110.45441 C230.808185,110.479113 231.861963,111.530142 232.105432,113.607496 L232.105432,126.06596 L246.841581,136.148235 L255.340526,136.148235 L255.340526,123.107807 L249.081773,119.346919 L244.449897,74.0220149 L212.916439,74.0220149 C212.581564,77.3237287 212.261452,80.4469873 211.956104,83.3917907 C212.173259,83.38255 212.392127,83.3779297 212.612707,83.3779297 C215.104227,83.3779297 217.235307,83.8636904 219.006009,84.8352264 C220.776712,85.8067625 222.120389,87.1700265 223.03708,88.9250593 C223.953772,90.6800921 224.41211,92.7328229 224.41211,95.0833133 L224.41211,98.8440792 L210.309465,98.8440792 C210.255635,99.3319091 210.202507,99.8112371 210.150083,100.282063 C210.443526,100.664585 210.833479,100.996172 211.319944,101.276825 C212.33849,101.864447 213.686084,102.158254 215.362768,102.158254 C217.697588,102.158254 219.907016,101.711668 221.991117,100.818481 L221.991117,107.164774 C219.562277,108.13631 216.616373,108.62207 213.153318,108.62207 C211.740834,108.62207 210.43383,108.500644 209.232303,108.257789 Z" id="Combined-Shape" fill="#FFFFFF" fill-rule="nonzero"></path>
                    <path d="M228.557838,34.5613169 L231.464402,40.1907489 L244.542324,50.8443463 L244.542324,64.2825772 L250.396607,64.2825772 L250.396607,71.339212 L206.874763,71.339212 L206.874763,64.1170372 L212.511401,64.1170372 L212.511401,49.9892407 L225.695128,40.1643771 L228.557838,34.5613169 Z M228.792453,66.4675822 C228.94831,66.4675822 229.080188,66.4137731 229.188089,66.3061532 L234.789947,60.9251866 C236.162693,59.5560227 236.849056,58.2107945 236.849056,56.8894616 C236.849056,55.5741077 236.46841,54.5457555 235.707105,53.8043741 C234.9458,53.0629928 233.893776,52.6923077 232.551002,52.6923077 C232.179342,52.6923077 231.800193,52.7565797 231.413546,52.8851257 C231.026899,53.0136716 230.667233,53.1870566 230.334537,53.4052858 C230.001841,53.6235149 229.715606,53.8282886 229.475825,54.0196128 C229.236044,54.210937 229.008256,54.4142159 228.792453,54.6294557 C228.57665,54.4142159 228.348861,54.210937 228.10908,54.0196128 C227.869299,53.8282886 227.583065,53.6235149 227.250368,53.4052858 C226.917672,53.1870566 226.558006,53.0136716 226.171359,52.8851257 C225.784712,52.7565797 225.405564,52.6923077 225.033903,52.6923077 C223.691129,52.6923077 222.639106,53.0629928 221.877801,53.8043741 C221.116496,54.5457555 220.735849,55.5741077 220.735849,56.8894616 C220.735849,57.2900467 220.806284,57.7025834 220.947155,58.127084 C221.088026,58.5515846 221.248378,58.9133015 221.428213,59.2122456 C221.608049,59.5111896 221.81186,59.8026558 222.039652,60.0866526 C222.267444,60.3706495 222.43379,60.566455 222.538694,60.6740748 C222.643598,60.7816947 222.726022,60.859419 222.785967,60.90725 L228.396816,66.3061532 C228.504717,66.4137731 228.636595,66.4675822 228.792453,66.4675822 Z" id="Combined-Shape" fill="#FFFFFF" fill-rule="nonzero"></path>
                    <path d="M212.150943,40.1778846 L193.660377,29.6394231" id="Line" stroke="#FFFFFF" stroke-linecap="square"></path>
                    <path d="M216.113208,34.9086538 L194.981132,11.1971154" id="Line" stroke="#FFFFFF" stroke-linecap="square"></path>
                    <path d="M221.396226,32.2740385 L214.792453,11.1971154" id="Line" stroke="#FFFFFF" stroke-linecap="square"></path>
                    <path d="M228,30.9567308 L228,0.630030243" id="Line" stroke="#FFFFFF" stroke-linecap="square"></path>
                    <path d="M234.603774,30.9567308 L241.207547,12.5144231" id="Line" stroke="#FFFFFF" stroke-linecap="square"></path>
                    <path d="M239.886792,34.9086538 L261.018868,9.87980769" id="Line" stroke="#FFFFFF" stroke-linecap="square"></path>
                    <path d="M245.169811,40.1778846 L262.339623,29.6394231" id="Line" stroke="#FFFFFF" stroke-linecap="square"></path>
                    <path d="M0.75390625,106 L0.75390625,77.9921875 L9.19140625,77.9921875 L9.19140625,99.3984375 L18.8398438,99.3984375 L18.8398438,106 L0.75390625,106 Z M21.6328125,106 L21.6328125,86 L29.953125,86 L29.953125,106 L21.6328125,106 Z M55.6367188,103.207031 C55.6367188,107.048196 54.4290485,110.039703 52.0136719,112.181641 C49.5982952,114.323578 46.0729398,115.394531 41.4375,115.394531 C40.1874938,115.394531 38.9765684,115.296876 37.8046875,115.101562 C36.6328066,114.906249 35.7929713,114.684897 35.2851562,114.4375 L35.2851562,107.914062 C36.1184937,108.434898 37.0950465,108.851561 38.2148438,109.164062 C39.334641,109.476564 40.3307248,109.632812 41.203125,109.632812 C43.0651135,109.632812 44.555984,109.183598 45.6757812,108.285156 C46.7955785,107.386714 47.3554688,106.19532 47.3554688,104.710938 L47.3554688,103.480469 L47.2773438,103.480469 C46.6783824,104.391932 45.8548229,105.121091 44.8066406,105.667969 C43.7584583,106.214846 42.6354227,106.488281 41.4375,106.488281 C38.8593621,106.488281 36.8216221,105.593108 35.3242188,103.802734 C33.8268154,102.012361 33.078125,99.5416824 33.078125,96.390625 C33.078125,94.2291559 33.4687461,92.3216229 34.25,90.6679688 C35.0312539,89.0143146 36.1184826,87.7415409 37.5117188,86.8496094 C38.9049549,85.9576778 40.4413979,85.5117188 42.1210938,85.5117188 C44.4257928,85.5117188 46.1445256,86.3645748 47.2773438,88.0703125 L47.3554688,88.0703125 L47.3554688,86 L55.6367188,86 L55.6367188,103.207031 Z M47.4921875,95.4335938 C47.4921875,94.2617129 47.2285183,93.3307326 46.7011719,92.640625 C46.1738255,91.9505174 45.4739627,91.6054688 44.6015625,91.6054688 C43.6640578,91.6054688 42.9153674,92.0221313 42.3554688,92.8554688 C41.7955701,93.6888062 41.515625,94.8020764 41.515625,96.1953125 C41.515625,97.4843814 41.7499977,98.5065066 42.21875,99.2617188 C42.6875023,100.016931 43.4296824,100.394531 44.4453125,100.394531 C45.3958381,100.394531 46.1412733,100.007165 46.6816406,99.2324219 C47.2220079,98.4576784 47.4921875,97.4192773 47.4921875,96.1171875 L47.4921875,95.4335938 Z M72.53125,106 L72.53125,94.59375 C72.53125,92.6015525 71.7695389,91.6054688 70.2460938,91.6054688 C69.5039025,91.6054688 68.937502,91.888669 68.546875,92.4550781 C68.156248,93.0214872 67.9609375,93.7473914 67.9609375,94.6328125 L67.9609375,106 L59.640625,106 L59.640625,76.390625 L67.9609375,76.390625 L67.9609375,88.7148438 L68.0390625,88.7148438 C68.7552119,87.6861928 69.6243438,86.8951851 70.6464844,86.3417969 C71.6686249,85.7884087 72.7656191,85.5117188 73.9375,85.5117188 C76.0989691,85.5117188 77.7460881,86.2050712 78.8789062,87.5917969 C80.0117244,88.9785226 80.578125,91.0195178 80.578125,93.7148438 L80.578125,106 L72.53125,106 Z M98.4101562,105.726562 C98.0325502,105.908855 97.4140668,106.081379 96.5546875,106.244141 C95.6953082,106.406902 94.6601623,106.488281 93.4492188,106.488281 C91.1314988,106.488281 89.3183659,105.850267 88.0097656,104.574219 C86.7011653,103.298171 86.046875,101.481783 86.046875,99.125 L86.046875,91.7617188 L82.9023438,91.7617188 L82.9023438,86 L86.046875,86 L86.046875,82.0742188 L94.25,79.8085938 L94.25,86 L98.4101562,86 L98.4101562,91.7617188 L94.25,91.7617188 L94.25,97.7578125 C94.25,99.5156338 94.9466076,100.394531 96.3398438,100.394531 C96.9908887,100.394531 97.6809859,100.251304 98.4101562,99.9648438 L98.4101562,105.726562 Z M119.894531,106 L119.894531,95.5507812 L110.207031,95.5507812 L110.207031,106 L101.769531,106 L101.769531,77.9921875 L110.207031,77.9921875 L110.207031,88.3632812 L119.894531,88.3632812 L119.894531,77.9921875 L128.332031,77.9921875 L128.332031,106 L119.894531,106 Z M155.34375,95.6484375 C155.34375,99.0208502 154.32488,101.670563 152.287109,103.597656 C150.249339,105.524749 147.40106,106.488281 143.742188,106.488281 C140.109357,106.488281 137.280609,105.547535 135.255859,103.666016 C133.23111,101.784496 132.21875,99.1901207 132.21875,95.8828125 C132.21875,93.7604061 132.694006,91.9179766 133.644531,90.3554688 C134.595057,88.7929609 135.94921,87.5950562 137.707031,86.7617188 C139.464853,85.9283813 141.489572,85.5117188 143.78125,85.5117188 C146.151054,85.5117188 148.205069,85.9479123 149.943359,86.8203125 C151.681649,87.6927127 153.016271,88.9036381 153.947266,90.453125 C154.87826,92.0026119 155.34375,93.7343654 155.34375,95.6484375 Z M146.90625,95.6875 C146.90625,92.9661322 145.864594,91.6054688 143.78125,91.6054688 C141.697906,91.6054688 140.65625,93.0312357 140.65625,95.8828125 C140.65625,98.89064 141.710927,100.394531 143.820312,100.394531 C145.877614,100.394531 146.90625,98.8255365 146.90625,95.6875 Z M171.183594,106 L171.183594,102.914062 L171.105469,102.914062 C170.415361,103.864588 169.793623,104.561196 169.240234,105.003906 C168.686846,105.446617 168.061852,105.804686 167.365234,106.078125 C166.668616,106.351564 165.858078,106.488281 164.933594,106.488281 C162.746083,106.488281 161.079433,105.778653 159.933594,104.359375 C158.787755,102.940097 158.214844,100.843764 158.214844,98.0703125 L158.214844,86 L166.535156,86 L166.535156,97.4453125 C166.535156,99.4114682 167.270826,100.394531 168.742188,100.394531 C169.549483,100.394531 170.158201,100.127607 170.568359,99.59375 C170.978518,99.0598932 171.183594,98.3046924 171.183594,97.328125 L171.183594,86 L179.503906,86 L179.503906,106 L171.183594,106 Z M199.738281,99.359375 C199.738281,101.625011 198.87566,103.379551 197.150391,104.623047 C195.425122,105.866543 193.019547,106.488281 189.933594,106.488281 C189.035152,106.488281 187.925137,106.397136 186.603516,106.214844 C185.281894,106.032551 184.204431,105.811199 183.371094,105.550781 L183.371094,99.7109375 C185.832044,100.804693 187.889315,101.351562 189.542969,101.351562 C191.170581,101.351562 191.984375,100.92839 191.984375,100.082031 C191.984375,99.730467 191.795575,99.4407563 191.417969,99.2128906 C191.040363,98.9850249 190.050789,98.6041693 188.449219,98.0703125 C186.678377,97.5104139 185.389327,96.7682338 184.582031,95.84375 C183.774736,94.9192662 183.371094,93.7148512 183.371094,92.2304688 C183.371094,90.1601459 184.194653,88.5227925 185.841797,87.3183594 C187.488941,86.1139263 189.803371,85.5117188 192.785156,85.5117188 C194.529957,85.5117188 196.378896,85.7656225 198.332031,86.2734375 L198.332031,91.8789062 C197.511715,91.527342 196.613286,91.2343762 195.636719,91 C194.660151,90.7656238 193.839847,90.6484375 193.175781,90.6484375 C192.628904,90.6484375 192.19271,90.7395824 191.867188,90.921875 C191.541665,91.1041676 191.378906,91.3580713 191.378906,91.6835938 C191.378906,92.0611998 191.554686,92.3671863 191.90625,92.6015625 C192.257814,92.8359387 192.960932,93.1158838 194.015625,93.4414062 C196.059906,94.0403676 197.524735,94.8085891 198.410156,95.7460938 C199.295577,96.6835984 199.738281,97.8880135 199.738281,99.359375 Z" id="LightHouse" fill="#FFFFFF" fill-rule="nonzero"></path>
                    <path d="M214.972656,94.0078125 C214.972656,91.7031135 214.145842,90.5507812 212.492188,90.5507812 C211.80208,90.5507812 211.222659,90.8665333 210.753906,91.4980469 C210.285154,92.1295604 210.011719,92.9661406 209.933594,94.0078125 L214.972656,94.0078125 Z" id="Path" fill="#FFFFFF" fill-rule="nonzero"></path>
                </g>
                <path d="M26.056604,82.7752745 C26.212461,82.7752745 26.344339,82.7214654 26.45224,82.6138455 L32.054098,77.2328789 C33.426844,75.863715 34.113207,74.5184868 34.113207,73.1971539 C34.113207,71.8818 33.732561,70.8534478 32.971256,70.1120664 C32.209951,69.3706851 31.157927,69 29.815153,69 C29.443493,69 29.064344,69.064272 28.677697,69.192818 C28.29105,69.3213639 27.931384,69.4947489 27.598688,69.7129781 C27.265992,69.9312072 26.979757,70.1359809 26.739976,70.3273051 C26.500195,70.5186293 26.272407,70.7219082 26.056604,70.937148 C25.840801,70.7219082 25.613012,70.5186293 25.373231,70.3273051 C25.13345,70.1359809 24.847216,69.9312072 24.514519,69.7129781 C24.181823,69.4947489 23.822157,69.3213639 23.43551,69.192818 C23.048863,69.064272 22.669715,69 22.298054,69 C20.95528,69 19.903257,69.3706851 19.141952,70.1120664 C18.380647,70.8534478 18,71.8818 18,73.1971539 C18,73.597739 18.070435,74.0102757 18.211306,74.4347763 C18.352177,74.8592769 18.512529,75.2209938 18.692364,75.5199379 C18.8722,75.8188819 19.076011,76.1103481 19.303803,76.3943449 C19.531595,76.6783418 19.697941,76.8741473 19.802845,76.9817671 C19.907749,77.089387 19.990173,77.1671113 20.050118,77.2149423 L25.660967,82.6138455 C25.768868,82.7214654 25.900746,82.7752745 26.056604,82.7752745 Z" id="Combined-Shape-path" fill="#FFFFFF"></path>
            </g>
        </g>
    </g>
</svg>